REM DIRINDEX 1\2,1\4,1\5,1\6,1\7,1\3\8,1\3\9,1\3\10
REM DIRNAME cjc113,folder01,folder02,folder03,folder04,folder05,folder06,folder07,folder08,folder09
TITLE ""
FILE "DB4500_5th_MK_02.mp3" MP3
  TRACK 01 AUDIO
    TITLE "6:cjc113_6271"
    INDEX 01 00:00:00
  TRACK 02 AUDIO
    TITLE "0:"
    INDEX 01 00:01:22
  TRACK 03 AUDIO
    TITLE "6:cjc113_6272"
    INDEX 01 00:01:30
  TRACK 04 AUDIO
    TITLE "0:"
    INDEX 01 00:03:02
  TRACK 05 AUDIO
    TITLE "6:cjc113_6273"
    INDEX 01 00:03:45
  TRACK 06 AUDIO
    TITLE "0:"
    INDEX 01 00:05:09
  TRACK 07 AUDIO
    TITLE "6:cjc113_6274"
    INDEX 01 00:05:14
  TRACK 08 AUDIO
    TITLE "0:"
    INDEX 01 00:06:45
  TRACK 09 AUDIO
    TITLE "6:cjc113_6275"
    INDEX 01 00:07:07
  TRACK 10 AUDIO
    TITLE "0:"
    INDEX 01 00:08:44
  TRACK 11 AUDIO
    TITLE "6:cjc113_6276"
    INDEX 01 00:08:52
  TRACK 12 AUDIO
    TITLE "0:"
    INDEX 01 00:09:63
  TRACK 13 AUDIO
    TITLE "6:cjc113_6277"
    INDEX 01 00:10:35
  TRACK 14 AUDIO
    TITLE "0:"
    INDEX 01 00:11:42
  TRACK 15 AUDIO
    TITLE "6:cjc113_6278"
    INDEX 01 00:11:50
  TRACK 16 AUDIO
    TITLE "0:"
    INDEX 01 00:13:10
  TRACK 17 AUDIO
    TITLE "6:cjc113_6279"
    INDEX 01 00:13:49
  TRACK 18 AUDIO
    TITLE "0:"
    INDEX 01 00:14:54
  TRACK 19 AUDIO
    TITLE "6:cjc113_6280"
    INDEX 01 00:14:62
  TRACK 20 AUDIO
    TITLE "0:"
    INDEX 01 00:15:70
  TRACK 21 AUDIO
    TITLE "6:cjc113_6281"
    INDEX 01 00:16:38
  TRACK 22 AUDIO
    TITLE "0:"
    INDEX 01 00:17:41
  TRACK 23 AUDIO
    TITLE "6:cjc113_6282"
    INDEX 01 00:17:47
  TRACK 24 AUDIO
    TITLE "0:"
    INDEX 01 00:18:62
  TRACK 25 AUDIO
    TITLE "6:cjc113_6283"
    INDEX 01 00:19:28
  TRACK 26 AUDIO
    TITLE "0:"
    INDEX 01 00:20:47
  TRACK 27 AUDIO
    TITLE "6:cjc113_6284"
    INDEX 01 00:20:53
  TRACK 28 AUDIO
    TITLE "0:"
    INDEX 01 00:22:17
  TRACK 29 AUDIO
    TITLE "6:cjc113_6285"
    INDEX 01 00:22:60
  TRACK 30 AUDIO
    TITLE "0:"
    INDEX 01 00:23:67
  TRACK 31 AUDIO
    TITLE "6:cjc113_6286"
    INDEX 01 00:23:71
  TRACK 32 AUDIO
    TITLE "0:"
    INDEX 01 00:25:35
  TRACK 33 AUDIO
    TITLE "6:cjc113_6287"
    INDEX 01 00:25:74
  TRACK 34 AUDIO
    TITLE "0:"
    INDEX 01 00:27:20
  TRACK 35 AUDIO
    TITLE "6:cjc113_6288"
    INDEX 01 00:27:28
  TRACK 36 AUDIO
    TITLE "0:"
    INDEX 01 00:28:62
  TRACK 37 AUDIO
    TITLE "6:cjc113_6289"
    INDEX 01 00:29:33
  TRACK 38 AUDIO
    TITLE "0:"
    INDEX 01 00:30:38
  TRACK 39 AUDIO
    TITLE "6:cjc113_6290"
    INDEX 01 00:30:48
  TRACK 40 AUDIO
    TITLE "0:"
    INDEX 01 00:31:59
  TRACK 41 AUDIO
    TITLE "6:cjc113_6291"
    INDEX 01 00:32:25
  TRACK 42 AUDIO
    TITLE "0:"
    INDEX 01 00:33:34
  TRACK 43 AUDIO
    TITLE "6:cjc113_6292"
    INDEX 01 00:33:42
  TRACK 44 AUDIO
    TITLE "0:"
    INDEX 01 00:34:71
  TRACK 45 AUDIO
    TITLE "6:cjc113_6293"
    INDEX 01 00:35:39
  TRACK 46 AUDIO
    TITLE "0:"
    INDEX 01 00:36:56
  TRACK 47 AUDIO
    TITLE "6:cjc113_6294"
    INDEX 01 00:36:64
  TRACK 48 AUDIO
    TITLE "0:"
    INDEX 01 00:38:08
  TRACK 49 AUDIO
    TITLE "6:cjc113_6295"
    INDEX 01 00:38:45
  TRACK 50 AUDIO
    TITLE "0:"
    INDEX 01 00:39:51
  TRACK 51 AUDIO
    TITLE "6:cjc113_6296"
    INDEX 01 00:39:54
  TRACK 52 AUDIO
    TITLE "0:"
    INDEX 01 00:41:04
  TRACK 53 AUDIO
    TITLE "6:cjc113_6297"
    INDEX 01 00:41:42
  TRACK 54 AUDIO
    TITLE "0:"
    INDEX 01 00:42:57
  TRACK 55 AUDIO
    TITLE "6:cjc113_6298"
    INDEX 01 00:42:66
  TRACK 56 AUDIO
    TITLE "0:"
    INDEX 01 00:44:07
  TRACK 57 AUDIO
    TITLE "6:cjc113_6299"
    INDEX 01 00:44:50
  TRACK 58 AUDIO
    TITLE "0:"
    INDEX 01 00:45:51
  TRACK 59 AUDIO
    TITLE "6:cjc113_6300"
    INDEX 01 00:45:57
  TRACK 60 AUDIO
    TITLE "0:"
    INDEX 01 00:46:72
  TRACK 61 AUDIO
    TITLE "6:cjc113_6301"
    INDEX 01 00:47:34
  TRACK 62 AUDIO
    TITLE "0:"
    INDEX 01 00:48:44
  TRACK 63 AUDIO
    TITLE "6:cjc113_6302"
    INDEX 01 00:48:55
  TRACK 64 AUDIO
    TITLE "0:"
    INDEX 01 00:50:31
  TRACK 65 AUDIO
    TITLE "6:cjc113_6303"
    INDEX 01 00:51:01
  TRACK 66 AUDIO
    TITLE "0:"
    INDEX 01 00:52:04
  TRACK 67 AUDIO
    TITLE "6:cjc113_6304"
    INDEX 01 00:52:12
  TRACK 68 AUDIO
    TITLE "0:"
    INDEX 01 00:53:06
  TRACK 69 AUDIO
    TITLE "6:cjc113_6305"
    INDEX 01 00:53:47
  TRACK 70 AUDIO
    TITLE "0:"
    INDEX 01 00:54:58
  TRACK 71 AUDIO
    TITLE "6:cjc113_6306"
    INDEX 01 00:54:64
  TRACK 72 AUDIO
    TITLE "0:"
    INDEX 01 00:56:16
  TRACK 73 AUDIO
    TITLE "6:cjc113_6307"
    INDEX 01 00:56:61
  TRACK 74 AUDIO
    TITLE "0:"
    INDEX 01 00:57:74
  TRACK 75 AUDIO
    TITLE "6:cjc113_6308"
    INDEX 01 00:58:05
  TRACK 76 AUDIO
    TITLE "0:"
    INDEX 01 00:59:16
  TRACK 77 AUDIO
    TITLE "6:cjc113_6309"
    INDEX 01 00:59:59
  TRACK 78 AUDIO
    TITLE "0:"
    INDEX 01 01:01:25
  TRACK 79 AUDIO
    TITLE "6:cjc113_6310"
    INDEX 01 01:01:34
  TRACK 80 AUDIO
    TITLE "0:"
    INDEX 01 01:02:61
  TRACK 81 AUDIO
    TITLE "6:cjc113_6311"
    INDEX 01 01:03:27
  TRACK 82 AUDIO
    TITLE "0:"
    INDEX 01 01:04:50
  TRACK 83 AUDIO
    TITLE "6:cjc113_6312"
    INDEX 01 01:04:52
  TRACK 84 AUDIO
    TITLE "0:"
    INDEX 01 01:06:63
  TRACK 85 AUDIO
    TITLE "6:cjc113_6313"
    INDEX 01 01:07:29
  TRACK 86 AUDIO
    TITLE "0:"
    INDEX 01 01:08:46
  TRACK 87 AUDIO
    TITLE "6:cjc113_6314"
    INDEX 01 01:08:50
  TRACK 88 AUDIO
    TITLE "0:"
    INDEX 01 01:10:55
  TRACK 89 AUDIO
    TITLE "6:cjc113_6315"
    INDEX 01 01:11:21
  TRACK 90 AUDIO
    TITLE "0:"
    INDEX 01 01:12:58
  TRACK 91 AUDIO
    TITLE "6:cjc113_6316"
    INDEX 01 01:12:64
  TRACK 92 AUDIO
    TITLE "0:"
    INDEX 01 01:14:02
  TRACK 93 AUDIO
    TITLE "6:cjc113_6317"
    INDEX 01 01:14:45
  TRACK 94 AUDIO
    TITLE "0:"
    INDEX 01 01:15:54
  TRACK 95 AUDIO
    TITLE "6:cjc113_6318"
    INDEX 01 01:15:58
  TRACK 96 AUDIO
    TITLE "0:"
    INDEX 01 01:17:22
  TRACK 97 AUDIO
    TITLE "6:cjc113_6319"
    INDEX 01 01:17:65
  TRACK 98 AUDIO
    TITLE "0:"
    INDEX 01 01:19:23
  TRACK 99 AUDIO
    TITLE "6:cjc113_6320"
    INDEX 01 01:19:30
  TRACK 100 AUDIO
    TITLE "0:"
    INDEX 01 01:21:06
  TRACK 101 AUDIO
    TITLE "6:cjc113_6321"
    INDEX 01 01:21:49
  TRACK 102 AUDIO
    TITLE "0:"
    INDEX 01 01:22:74
  TRACK 103 AUDIO
    TITLE "6:cjc113_6322"
    INDEX 01 01:23:11
  TRACK 104 AUDIO
    TITLE "0:"
    INDEX 01 01:24:51
  TRACK 105 AUDIO
    TITLE "6:cjc113_6323"
    INDEX 01 01:25:17
  TRACK 106 AUDIO
    TITLE "0:"
    INDEX 01 01:26:40
  TRACK 107 AUDIO
    TITLE "6:cjc113_6324"
    INDEX 01 01:26:46
  TRACK 108 AUDIO
    TITLE "0:"
    INDEX 01 01:28:04
  TRACK 109 AUDIO
    TITLE "6:cjc113_6325"
    INDEX 01 01:28:45
  TRACK 110 AUDIO
    TITLE "0:"
    INDEX 01 01:29:62
  TRACK 111 AUDIO
    TITLE "6:cjc113_6326"
    INDEX 01 01:30:03
  TRACK 112 AUDIO
    TITLE "0:"
    INDEX 01 01:31:47
  TRACK 113 AUDIO
    TITLE "6:cjc113_6327"
    INDEX 01 01:32:12
  TRACK 114 AUDIO
    TITLE "0:"
    INDEX 01 01:33:34
  TRACK 115 AUDIO
    TITLE "6:cjc113_6328"
    INDEX 01 01:33:40
  TRACK 116 AUDIO
    TITLE "0:"
    INDEX 01 01:35:10
  TRACK 117 AUDIO
    TITLE "6:cjc113_6329"
    INDEX 01 01:35:53
  TRACK 118 AUDIO
    TITLE "0:"
    INDEX 01 01:36:58
  TRACK 119 AUDIO
    TITLE "6:cjc113_6330"
    INDEX 01 01:36:68
  TRACK 120 AUDIO
    TITLE "0:"
    INDEX 01 01:38:34
  TRACK 121 AUDIO
    TITLE "6:cjc113_6331"
    INDEX 01 01:39:00
  TRACK 122 AUDIO
    TITLE "0:"
    INDEX 01 01:40:15
  TRACK 123 AUDIO
    TITLE "6:cjc113_6332"
    INDEX 01 01:40:23
  TRACK 124 AUDIO
    TITLE "0:"
    INDEX 01 01:41:65
  TRACK 125 AUDIO
    TITLE "6:cjc113_6333"
    INDEX 01 01:42:30
  TRACK 126 AUDIO
    TITLE "0:"
    INDEX 01 01:43:54
  TRACK 127 AUDIO
    TITLE "6:cjc113_6334"
    INDEX 01 01:43:62
  TRACK 128 AUDIO
    TITLE "0:"
    INDEX 01 01:45:26
  TRACK 129 AUDIO
    TITLE "6:cjc113_6335"
    INDEX 01 01:45:73
  TRACK 130 AUDIO
    TITLE "0:"
    INDEX 01 01:47:31
  TRACK 131 AUDIO
    TITLE "6:cjc113_6336"
    INDEX 01 01:47:39
  TRACK 132 AUDIO
    TITLE "0:"
    INDEX 01 01:49:00
  TRACK 133 AUDIO
    TITLE "6:cjc113_6337"
    INDEX 01 01:49:41
  TRACK 134 AUDIO
    TITLE "0:"
    INDEX 01 01:50:58
  TRACK 135 AUDIO
    TITLE "6:cjc113_6338"
    INDEX 01 01:50:60
  TRACK 136 AUDIO
    TITLE "0:"
    INDEX 01 01:53:16
  TRACK 137 AUDIO
    TITLE "6:cjc113_6339"
    INDEX 01 01:53:55
  TRACK 138 AUDIO
    TITLE "0:"
    INDEX 01 01:54:72
  TRACK 139 AUDIO
    TITLE "6:cjc113_6340"
    INDEX 01 01:55:05
  TRACK 140 AUDIO
    TITLE "0:"
    INDEX 01 01:56:12
  TRACK 141 AUDIO
    TITLE "6:cjc113_6341"
    INDEX 01 01:56:53
  TRACK 142 AUDIO
    TITLE "0:"
    INDEX 01 01:57:66
  TRACK 143 AUDIO
    TITLE "6:cjc113_6342"
    INDEX 01 01:57:74
  TRACK 144 AUDIO
    TITLE "0:"
    INDEX 01 01:59:16
  TRACK 145 AUDIO
    TITLE "6:cjc113_6343"
    INDEX 01 01:59:59
  TRACK 146 AUDIO
    TITLE "0:"
    INDEX 01 02:00:74
  TRACK 147 AUDIO
    TITLE "6:cjc113_6344"
    INDEX 01 02:01:07
  TRACK 148 AUDIO
    TITLE "0:"
    INDEX 01 02:02:24
  TRACK 149 AUDIO
    TITLE "6:cjc113_6345"
    INDEX 01 02:02:66
  TRACK 150 AUDIO
    TITLE "0:"
    INDEX 01 02:03:73
  TRACK 151 AUDIO
    TITLE "6:cjc113_6346"
    INDEX 01 02:04:08
  TRACK 152 AUDIO
    TITLE "0:"
    INDEX 01 02:05:17
  TRACK 153 AUDIO
    TITLE "6:cjc113_6347"
    INDEX 01 02:05:62
  TRACK 154 AUDIO
    TITLE "0:"
    INDEX 01 02:06:67
  TRACK 155 AUDIO
    TITLE "6:cjc113_6348"
    INDEX 01 02:06:73
  TRACK 156 AUDIO
    TITLE "0:"
    INDEX 01 02:08:17
  TRACK 157 AUDIO
    TITLE "6:cjc113_6349"
    INDEX 01 02:08:60
  TRACK 158 AUDIO
    TITLE "0:"
    INDEX 01 02:09:71
  TRACK 159 AUDIO
    TITLE "6:cjc113_6350"
    INDEX 01 02:10:14
  TRACK 160 AUDIO
    TITLE "0:"
    INDEX 01 02:12:09
  TRACK 161 AUDIO
    TITLE "6:cjc113_6351"
    INDEX 01 02:12:46
  TRACK 162 AUDIO
    TITLE "0:"
    INDEX 01 02:13:61
  TRACK 163 AUDIO
    TITLE "6:cjc113_6352"
    INDEX 01 02:13:65
  TRACK 164 AUDIO
    TITLE "0:"
    INDEX 01 02:15:09
  TRACK 165 AUDIO
    TITLE "6:cjc113_6353"
    INDEX 01 02:15:51
  TRACK 166 AUDIO
    TITLE "0:"
    INDEX 01 02:16:62
  TRACK 167 AUDIO
    TITLE "6:cjc113_6354"
    INDEX 01 02:16:68
  TRACK 168 AUDIO
    TITLE "0:"
    INDEX 01 02:18:10
  TRACK 169 AUDIO
    TITLE "6:cjc113_6355"
    INDEX 01 02:18:53
  TRACK 170 AUDIO
    TITLE "0:"
    INDEX 01 02:19:68
  TRACK 171 AUDIO
    TITLE "6:cjc113_6356"
    INDEX 01 02:20:01
  TRACK 172 AUDIO
    TITLE "0:"
    INDEX 01 02:21:32
  TRACK 173 AUDIO
    TITLE "6:cjc113_6357"
    INDEX 01 02:22:00
  TRACK 174 AUDIO
    TITLE "0:"
    INDEX 01 02:23:40
  TRACK 175 AUDIO
    TITLE "6:cjc113_6358"
    INDEX 01 02:23:48
  TRACK 176 AUDIO
    TITLE "0:"
    INDEX 01 02:25:12
  TRACK 177 AUDIO
    TITLE "6:cjc113_6359"
    INDEX 01 02:25:55
  TRACK 178 AUDIO
    TITLE "0:"
    INDEX 01 02:26:56
  TRACK 179 AUDIO
    TITLE "6:cjc113_6360"
    INDEX 01 02:26:64
  TRACK 180 AUDIO
    TITLE "0:"
    INDEX 01 02:28:02
  TRACK 181 AUDIO
    TITLE "6:cjc113_6361"
    INDEX 01 02:28:45
  TRACK 182 AUDIO
    TITLE "0:"
    INDEX 01 02:29:68
  TRACK 183 AUDIO
    TITLE "6:cjc113_6362"
    INDEX 01 02:29:74
  TRACK 184 AUDIO
    TITLE "0:"
    INDEX 01 02:32:02
  TRACK 185 AUDIO
    TITLE "6:cjc113_6363"
    INDEX 01 02:32:51
  TRACK 186 AUDIO
    TITLE "0:"
    INDEX 01 02:34:01
  TRACK 187 AUDIO
    TITLE "6:cjc113_6364"
    INDEX 01 02:34:07
  TRACK 188 AUDIO
    TITLE "0:"
    INDEX 01 02:37:15
  TRACK 189 AUDIO
    TITLE "6:cjc113_6365"
    INDEX 01 02:37:56
  TRACK 190 AUDIO
    TITLE "0:"
    INDEX 01 02:38:69
  TRACK 191 AUDIO
    TITLE "6:cjc113_6366"
    INDEX 01 02:39:00
  TRACK 192 AUDIO
    TITLE "0:"
    INDEX 01 02:41:28
  TRACK 193 AUDIO
    TITLE "6:cjc113_6367"
    INDEX 01 02:41:69
  TRACK 194 AUDIO
    TITLE "0:"
    INDEX 01 02:43:19
  TRACK 195 AUDIO
    TITLE "6:cjc113_6368"
    INDEX 01 02:43:27
  TRACK 196 AUDIO
    TITLE "0:"
    INDEX 01 02:45:09
  TRACK 197 AUDIO
    TITLE "6:cjc113_6369"
    INDEX 01 02:45:50
  TRACK 198 AUDIO
    TITLE "0:"
    INDEX 01 02:47:15
  TRACK 199 AUDIO
    TITLE "6:cjc113_6370"
    INDEX 01 02:47:23
  TRACK 200 AUDIO
    TITLE "0:"
    INDEX 01 02:49:06
  TRACK 201 AUDIO
    TITLE "6:cjc113_6371"
    INDEX 01 02:49:45
  TRACK 202 AUDIO
    TITLE "0:"
    INDEX 01 02:51:01
  TRACK 203 AUDIO
    TITLE "6:cjc113_6372"
    INDEX 01 02:51:09
  TRACK 204 AUDIO
    TITLE "0:"
    INDEX 01 02:52:54
  TRACK 205 AUDIO
    TITLE "6:cjc113_6373"
    INDEX 01 02:53:22
  TRACK 206 AUDIO
    TITLE "0:"
    INDEX 01 02:54:51
  TRACK 207 AUDIO
    TITLE "6:cjc113_6374"
    INDEX 01 02:54:62
  TRACK 208 AUDIO
    TITLE "0:"
    INDEX 01 02:56:40
  TRACK 209 AUDIO
    TITLE "6:cjc113_6375"
    INDEX 01 02:57:08
  TRACK 210 AUDIO
    TITLE "0:"
    INDEX 01 02:58:48
  TRACK 211 AUDIO
    TITLE "6:cjc113_6376"
    INDEX 01 02:58:56
  TRACK 212 AUDIO
    TITLE "0:"
    INDEX 01 03:00:39
  TRACK 213 AUDIO
    TITLE "6:cjc113_6377"
    INDEX 01 03:01:04
  TRACK 214 AUDIO
    TITLE "0:"
    INDEX 01 03:02:42
  TRACK 215 AUDIO
    TITLE "6:cjc113_6378"
    INDEX 01 03:02:50
  TRACK 216 AUDIO
    TITLE "0:"
    INDEX 01 03:04:20
  TRACK 217 AUDIO
    TITLE "6:cjc113_6379"
    INDEX 01 03:04:63
  TRACK 218 AUDIO
    TITLE "0:"
    INDEX 01 03:06:09
  TRACK 219 AUDIO
    TITLE "6:cjc113_6380"
    INDEX 01 03:06:20
  TRACK 220 AUDIO
    TITLE "0:"
    INDEX 01 03:07:71
  TRACK 221 AUDIO
    TITLE "6:cjc113_6381"
    INDEX 01 03:08:39
  TRACK 222 AUDIO
    TITLE "0:"
    INDEX 01 03:09:72
  TRACK 223 AUDIO
    TITLE "6:cjc113_6382"
    INDEX 01 03:10:06
  TRACK 224 AUDIO
    TITLE "0:"
    INDEX 01 03:11:59
  TRACK 225 AUDIO
    TITLE "6:cjc113_6383"
    INDEX 01 03:12:27
  TRACK 226 AUDIO
    TITLE "0:"
    INDEX 01 03:13:60
  TRACK 227 AUDIO
    TITLE "6:cjc113_6384"
    INDEX 01 03:13:68
  TRACK 228 AUDIO
    TITLE "0:"
    INDEX 01 03:15:35
  TRACK 229 AUDIO
    TITLE "6:cjc113_6385"
    INDEX 01 03:16:01
  TRACK 230 AUDIO
    TITLE "0:"
    INDEX 01 03:17:48
  TRACK 231 AUDIO
    TITLE "6:cjc113_6386"
    INDEX 01 03:17:56
  TRACK 232 AUDIO
    TITLE "0:"
    INDEX 01 03:19:47
  TRACK 233 AUDIO
    TITLE "6:cjc113_6387"
    INDEX 01 03:20:15
  TRACK 234 AUDIO
    TITLE "0:"
    INDEX 01 03:21:67
  TRACK 235 AUDIO
    TITLE "6:cjc113_6388"
    INDEX 01 03:22:00
  TRACK 236 AUDIO
    TITLE "0:"
    INDEX 01 03:26:74
  TRACK 237 AUDIO
    TITLE "6:cjc113_6389"
    INDEX 01 03:27:40
  TRACK 238 AUDIO
    TITLE "0:"
    INDEX 01 03:29:14
  TRACK 239 AUDIO
    TITLE "6:cjc113_6390"
    INDEX 01 03:29:20
  TRACK 240 AUDIO
    TITLE "0:"
    INDEX 01 03:31:32
  TRACK 241 AUDIO
    TITLE "6:cjc113_6391"
    INDEX 01 03:31:73
  TRACK 242 AUDIO
    TITLE "0:"
    INDEX 01 03:33:51
  TRACK 243 AUDIO
    TITLE "6:cjc113_6392"
    INDEX 01 03:33:70
  TRACK 244 AUDIO
    TITLE "0:"
    INDEX 01 03:36:04
  TRACK 245 AUDIO
    TITLE "6:cjc113_6393"
    INDEX 01 03:36:43
  TRACK 246 AUDIO
    TITLE "0:"
    INDEX 01 03:38:15
  TRACK 247 AUDIO
    TITLE "6:cjc113_6394"
    INDEX 01 03:38:20
  TRACK 248 AUDIO
    TITLE "0:"
    INDEX 01 03:40:59
  TRACK 249 AUDIO
    TITLE "6:cjc113_6395"
    INDEX 01 03:41:27
  TRACK 250 AUDIO
    TITLE "0:"
    INDEX 01 03:42:57
  TRACK 251 AUDIO
    TITLE "6:cjc113_6396"
    INDEX 01 03:42:65
  TRACK 252 AUDIO
    TITLE "0:"
    INDEX 01 03:44:74
  TRACK 253 AUDIO
    TITLE "6:cjc113_6397"
    INDEX 01 03:45:40
  TRACK 254 AUDIO
    TITLE "0:"
    INDEX 01 03:48:46
  TRACK 255 AUDIO
    TITLE "6:cjc113_6398"
    INDEX 01 03:48:52
  TRACK 256 AUDIO
    TITLE "0:"
    INDEX 01 03:52:01
  TRACK 257 AUDIO
    TITLE "6:cjc113_6399"
    INDEX 01 03:52:42
  TRACK 258 AUDIO
    TITLE "0:"
    INDEX 01 03:53:63
  TRACK 259 AUDIO
    TITLE "6:cjc113_6400"
    INDEX 01 03:54:00
  TRACK 260 AUDIO
    TITLE "0:"
    INDEX 01 03:56:11
  TRACK 261 AUDIO
    TITLE "6:cjc113_6401"
    INDEX 01 03:56:56
  TRACK 262 AUDIO
    TITLE "0:"
    INDEX 01 03:58:27
  TRACK 263 AUDIO
    TITLE "6:cjc113_6402"
    INDEX 01 03:58:35
  TRACK 264 AUDIO
    TITLE "0:"
    INDEX 01 03:59:72
  TRACK 265 AUDIO
    TITLE "6:cjc113_6403"
    INDEX 01 04:00:42
  TRACK 266 AUDIO
    TITLE "0:"
    INDEX 01 04:01:69
  TRACK 267 AUDIO
    TITLE "6:cjc113_6404"
    INDEX 01 04:01:74
  TRACK 268 AUDIO
    TITLE "0:"
    INDEX 01 04:03:05
  TRACK 269 AUDIO
    TITLE "6:cjc113_6405"
    INDEX 01 04:03:50
  TRACK 270 AUDIO
    TITLE "0:"
    INDEX 01 04:04:59
  TRACK 271 AUDIO
    TITLE "6:cjc113_6406"
    INDEX 01 04:05:00
  TRACK 272 AUDIO
    TITLE "0:"
    INDEX 01 04:06:23
  TRACK 273 AUDIO
    TITLE "6:cjc113_6407"
    INDEX 01 04:06:66
  TRACK 274 AUDIO
    TITLE "0:"
    INDEX 01 04:08:06
  TRACK 275 AUDIO
    TITLE "6:cjc113_6408"
    INDEX 01 04:08:16
  TRACK 276 AUDIO
    TITLE "0:"
    INDEX 01 04:09:41
  TRACK 277 AUDIO
    TITLE "6:cjc113_6409"
    INDEX 01 04:10:11
  TRACK 278 AUDIO
    TITLE "0:"
    INDEX 01 04:11:59
  TRACK 279 AUDIO
    TITLE "6:cjc113_6410"
    INDEX 01 04:11:61
  TRACK 280 AUDIO
    TITLE "0:"
    INDEX 01 04:13:36
  TRACK 281 AUDIO
    TITLE "6:cjc113_6411"
    INDEX 01 04:14:03
  TRACK 282 AUDIO
    TITLE "0:"
    INDEX 01 04:16:56
  TRACK 283 AUDIO
    TITLE "6:cjc113_6412"
    INDEX 01 04:16:62
  TRACK 284 AUDIO
    TITLE "0:"
    INDEX 01 04:20:44
  TRACK 285 AUDIO
    TITLE "6:cjc113_6413"
    INDEX 01 04:21:12
  TRACK 286 AUDIO
    TITLE "0:"
    INDEX 01 04:22:61
  TRACK 287 AUDIO
    TITLE "6:cjc113_6414"
    INDEX 01 04:22:67
  TRACK 288 AUDIO
    TITLE "0:"
    INDEX 01 04:25:34
  TRACK 289 AUDIO
    TITLE "6:cjc113_6415"
    INDEX 01 04:26:02
  TRACK 290 AUDIO
    TITLE "0:"
    INDEX 01 04:27:54
  TRACK 291 AUDIO
    TITLE "6:cjc113_6416"
    INDEX 01 04:27:62
  TRACK 292 AUDIO
    TITLE "0:"
    INDEX 01 04:30:56
  TRACK 293 AUDIO
    TITLE "6:cjc113_6417"
    INDEX 01 04:31:27
  TRACK 294 AUDIO
    TITLE "0:"
    INDEX 01 04:33:41
  TRACK 295 AUDIO
    TITLE "6:cjc113_6418"
    INDEX 01 04:33:49
  TRACK 296 AUDIO
    TITLE "0:"
    INDEX 01 04:37:04
  TRACK 297 AUDIO
    TITLE "6:cjc113_6419"
    INDEX 01 04:37:43
  TRACK 298 AUDIO
    TITLE "0:"
    INDEX 01 04:38:58
  TRACK 299 AUDIO
    TITLE "6:cjc113_6420"
    INDEX 01 04:38:68
  TRACK 300 AUDIO
    TITLE "0:"
    INDEX 01 04:41:31
  TRACK 301 AUDIO
    TITLE "6:cjc113_6421"
    INDEX 01 04:41:74
  TRACK 302 AUDIO
    TITLE "0:"
    INDEX 01 04:43:22
  TRACK 303 AUDIO
    TITLE "6:cjc113_6422"
    INDEX 01 04:43:30
  TRACK 304 AUDIO
    TITLE "0:"
    INDEX 01 04:45:52
  TRACK 305 AUDIO
    TITLE "6:cjc113_6423"
    INDEX 01 04:46:18
  TRACK 306 AUDIO
    TITLE "0:"
    INDEX 01 04:47:69
  TRACK 307 AUDIO
    TITLE "6:cjc113_6424"
    INDEX 01 04:48:05
  TRACK 308 AUDIO
    TITLE "0:"
    INDEX 01 04:50:00
  TRACK 309 AUDIO
    TITLE "6:cjc113_6425"
    INDEX 01 04:50:42
  TRACK 310 AUDIO
    TITLE "0:"
    INDEX 01 04:52:03
  TRACK 311 AUDIO
    TITLE "6:cjc113_6426"
    INDEX 01 04:52:13
  TRACK 312 AUDIO
    TITLE "0:"
    INDEX 01 04:54:10
  TRACK 313 AUDIO
    TITLE "6:cjc113_6427"
    INDEX 01 04:54:53
  TRACK 314 AUDIO
    TITLE "0:"
    INDEX 01 04:56:19
  TRACK 315 AUDIO
    TITLE "6:cjc113_6428"
    INDEX 01 04:56:30
  TRACK 316 AUDIO
    TITLE "0:"
    INDEX 01 04:59:25
  TRACK 317 AUDIO
    TITLE "6:cjc113_6429"
    INDEX 01 04:59:66
  TRACK 318 AUDIO
    TITLE "0:"
    INDEX 01 05:01:24
  TRACK 319 AUDIO
    TITLE "6:cjc113_6430"
    INDEX 01 05:01:35
  TRACK 320 AUDIO
    TITLE "0:"
    INDEX 01 05:03:50
  TRACK 321 AUDIO
    TITLE "6:cjc113_6431"
    INDEX 01 05:04:14
  TRACK 322 AUDIO
    TITLE "0:"
    INDEX 01 05:05:57
  TRACK 323 AUDIO
    TITLE "6:cjc113_6432"
    INDEX 01 05:05:69
  TRACK 324 AUDIO
    TITLE "0:"
    INDEX 01 05:07:56
  TRACK 325 AUDIO
    TITLE "6:cjc113_6433"
    INDEX 01 05:08:26
  TRACK 326 AUDIO
    TITLE "0:"
    INDEX 01 05:09:70
  TRACK 327 AUDIO
    TITLE "6:cjc113_6434"
    INDEX 01 05:10:05
  TRACK 328 AUDIO
    TITLE "0:"
    INDEX 01 05:12:24
  TRACK 329 AUDIO
    TITLE "6:cjc113_6435"
    INDEX 01 05:12:65
  TRACK 330 AUDIO
    TITLE "0:"
    INDEX 01 05:14:13
  TRACK 331 AUDIO
    TITLE "6:cjc113_6436"
    INDEX 01 05:14:20
  TRACK 332 AUDIO
    TITLE "0:"
    INDEX 01 05:16:19
  TRACK 333 AUDIO
    TITLE "6:cjc113_6437"
    INDEX 01 05:16:60
  TRACK 334 AUDIO
    TITLE "0:"
    INDEX 01 05:18:08
  TRACK 335 AUDIO
    TITLE "6:cjc113_6438"
    INDEX 01 05:18:14
  TRACK 336 AUDIO
    TITLE "0:"
    INDEX 01 05:20:43
  TRACK 337 AUDIO
    TITLE "6:cjc113_6439"
    INDEX 01 05:21:09
  TRACK 338 AUDIO
    TITLE "0:"
    INDEX 01 05:22:63
  TRACK 339 AUDIO
    TITLE "6:cjc113_6440"
    INDEX 01 05:22:69
  TRACK 340 AUDIO
    TITLE "0:"
    INDEX 01 05:25:18
  TRACK 341 AUDIO
    TITLE "6:cjc113_6441"
    INDEX 01 05:25:59
  TRACK 342 AUDIO
    TITLE "0:"
    INDEX 01 05:27:39
  TRACK 343 AUDIO
    TITLE "6:cjc113_6442"
    INDEX 01 05:27:51
  TRACK 344 AUDIO
    TITLE "0:"
    INDEX 01 05:29:20
  TRACK 345 AUDIO
    TITLE "6:cjc113_6443"
    INDEX 01 05:29:59
  TRACK 346 AUDIO
    TITLE "0:"
    INDEX 01 05:31:42
  TRACK 347 AUDIO
    TITLE "6:cjc113_6444"
    INDEX 01 05:31:46
  TRACK 348 AUDIO
    TITLE "0:"
    INDEX 01 05:33:16
  TRACK 349 AUDIO
    TITLE "6:cjc113_6445"
    INDEX 01 05:33:57
  TRACK 350 AUDIO
    TITLE "0:"
    INDEX 01 05:35:05
  TRACK 351 AUDIO
    TITLE "6:cjc113_6446"
    INDEX 01 05:35:13
  TRACK 352 AUDIO
    TITLE "0:"
    INDEX 01 05:36:59
  TRACK 353 AUDIO
    TITLE "6:cjc113_6447"
    INDEX 01 05:37:23
  TRACK 354 AUDIO
    TITLE "0:"
    INDEX 01 05:38:46
  TRACK 355 AUDIO
    TITLE "6:cjc113_6448"
    INDEX 01 05:38:54
  TRACK 356 AUDIO
    TITLE "0:"
    INDEX 01 05:40:67
  TRACK 357 AUDIO
    TITLE "6:cjc113_6449"
    INDEX 01 05:41:33
  TRACK 358 AUDIO
    TITLE "0:"
    INDEX 01 05:42:60
  TRACK 359 AUDIO
    TITLE "6:cjc113_6450"
    INDEX 01 05:42:68
  TRACK 360 AUDIO
    TITLE "0:"
    INDEX 01 05:45:25
  TRACK 361 AUDIO
    TITLE "6:cjc113_6451"
    INDEX 01 05:45:64
  TRACK 362 AUDIO
    TITLE "0:"
    INDEX 01 05:47:63
  TRACK 363 AUDIO
    TITLE "6:cjc113_6452"
    INDEX 01 05:47:69
  TRACK 364 AUDIO
    TITLE "0:"
    INDEX 01 05:50:69
  TRACK 365 AUDIO
    TITLE "6:cjc113_6453"
    INDEX 01 05:51:27
  TRACK 366 AUDIO
    TITLE "0:"
    INDEX 01 05:52:68
  TRACK 367 AUDIO
    TITLE "6:cjc113_6454"
    INDEX 01 05:53:05
  TRACK 368 AUDIO
    TITLE "0:"
    INDEX 01 05:55:55
  TRACK 369 AUDIO
    TITLE "6:cjc113_6455"
    INDEX 01 05:56:25
  TRACK 370 AUDIO
    TITLE "0:"
    INDEX 01 05:58:41
  TRACK 371 AUDIO
    TITLE "6:cjc113_6456"
    INDEX 01 05:58:45
  TRACK 372 AUDIO
    TITLE "0:"
    INDEX 01 06:01:20
  TRACK 373 AUDIO
    TITLE "6:cjc113_6457"
    INDEX 01 06:01:55
  TRACK 374 AUDIO
    TITLE "0:"
    INDEX 01 06:03:66
  TRACK 375 AUDIO
    TITLE "6:cjc113_6458"
    INDEX 01 06:03:72
  TRACK 376 AUDIO
    TITLE "0:"
    INDEX 01 06:06:15
  TRACK 377 AUDIO
    TITLE "6:cjc113_6459"
    INDEX 01 06:06:60
  TRACK 378 AUDIO
    TITLE "0:"
    INDEX 01 06:08:71
  TRACK 379 AUDIO
    TITLE "6:cjc113_6460"
    INDEX 01 06:09:02
  TRACK 380 AUDIO
    TITLE "0:"
    INDEX 01 06:11:38
  TRACK 381 AUDIO
    TITLE "6:cjc113_6461"
    INDEX 01 06:12:04
  TRACK 382 AUDIO
    TITLE "0:"
    INDEX 01 06:13:31
  TRACK 383 AUDIO
    TITLE "6:cjc113_6462"
    INDEX 01 06:13:39
  TRACK 384 AUDIO
    TITLE "0:"
    INDEX 01 06:15:67
  TRACK 385 AUDIO
    TITLE "6:cjc113_6463"
    INDEX 01 06:16:33
  TRACK 386 AUDIO
    TITLE "0:"
    INDEX 01 06:18:26
  TRACK 387 AUDIO
    TITLE "6:cjc113_6464"
    INDEX 01 06:18:34
  TRACK 388 AUDIO
    TITLE "0:"
    INDEX 01 06:20:57
  TRACK 389 AUDIO
    TITLE "6:cjc113_6465"
    INDEX 01 06:21:23
  TRACK 390 AUDIO
    TITLE "0:"
    INDEX 01 06:22:36
  TRACK 391 AUDIO
    TITLE "6:cjc113_6466"
    INDEX 01 06:22:48
  TRACK 392 AUDIO
    TITLE "0:"
    INDEX 01 06:24:66
  TRACK 393 AUDIO
    TITLE "6:cjc113_6467"
    INDEX 01 06:25:32
  TRACK 394 AUDIO
    TITLE "0:"
    INDEX 01 06:26:73
  TRACK 395 AUDIO
    TITLE "6:cjc113_6468"
    INDEX 01 06:27:08
  TRACK 396 AUDIO
    TITLE "0:"
    INDEX 01 06:29:30
  TRACK 397 AUDIO
    TITLE "6:cjc113_6469"
    INDEX 01 06:29:69
  TRACK 398 AUDIO
    TITLE "0:"
    INDEX 01 06:33:42
  TRACK 399 AUDIO
    TITLE "6:cjc113_6470"
    INDEX 01 06:33:49
  TRACK 400 AUDIO
    TITLE "0:"
    INDEX 01 06:36:18
  TRACK 401 AUDIO
    TITLE "6:cjc113_6471"
    INDEX 01 06:36:60
  TRACK 402 AUDIO
    TITLE "0:"
    INDEX 01 06:38:54
  TRACK 403 AUDIO
    TITLE "6:cjc113_6472"
    INDEX 01 06:38:62
  TRACK 404 AUDIO
    TITLE "0:"
    INDEX 01 06:41:47
  TRACK 405 AUDIO
    TITLE "6:cjc113_6473"
    INDEX 01 06:42:15
  TRACK 406 AUDIO
    TITLE "0:"
    INDEX 01 06:43:50
  TRACK 407 AUDIO
    TITLE "6:cjc113_6474"
    INDEX 01 06:43:62
  TRACK 408 AUDIO
    TITLE "0:"
    INDEX 01 06:46:07
  TRACK 409 AUDIO
    TITLE "6:cjc113_6475"
    INDEX 01 06:46:44
  TRACK 410 AUDIO
    TITLE "0:"
    INDEX 01 06:48:71
  TRACK 411 AUDIO
    TITLE "6:cjc113_6476"
    INDEX 01 06:49:03
  TRACK 412 AUDIO
    TITLE "0:"
    INDEX 01 06:51:22
  TRACK 413 AUDIO
    TITLE "6:cjc113_6477"
    INDEX 01 06:51:63
  TRACK 414 AUDIO
    TITLE "0:"
    INDEX 01 06:53:21
  TRACK 415 AUDIO
    TITLE "6:cjc113_6478"
    INDEX 01 06:53:33
  TRACK 416 AUDIO
    TITLE "0:"
    INDEX 01 06:55:33
  TRACK 417 AUDIO
    TITLE "6:cjc113_6479"
    INDEX 01 06:56:00
  TRACK 418 AUDIO
    TITLE "0:"
    INDEX 01 06:58:22
  TRACK 419 AUDIO
    TITLE "6:cjc113_6480"
    INDEX 01 06:58:30
  TRACK 420 AUDIO
    TITLE "0:"
    INDEX 01 07:01:26
  TRACK 421 AUDIO
    TITLE "6:cjc113_6481"
    INDEX 01 07:01:67
  TRACK 422 AUDIO
    TITLE "0:"
    INDEX 01 07:03:35
  TRACK 423 AUDIO
    TITLE "6:cjc113_6482"
    INDEX 01 07:03:45
  TRACK 424 AUDIO
    TITLE "0:"
    INDEX 01 07:05:55
  TRACK 425 AUDIO
    TITLE "6:cjc113_6483"
    INDEX 01 07:06:21
  TRACK 426 AUDIO
    TITLE "0:"
    INDEX 01 07:08:32
  TRACK 427 AUDIO
    TITLE "6:cjc113_6484"
    INDEX 01 07:08:42
  TRACK 428 AUDIO
    TITLE "0:"
    INDEX 01 07:11:13
  TRACK 429 AUDIO
    TITLE "6:cjc113_6485"
    INDEX 01 07:11:58
  TRACK 430 AUDIO
    TITLE "0:"
    INDEX 01 07:13:39
  TRACK 431 AUDIO
    TITLE "6:cjc113_6486"
    INDEX 01 07:13:47
  TRACK 432 AUDIO
    TITLE "0:"
    INDEX 01 07:15:62
  TRACK 433 AUDIO
    TITLE "6:cjc113_6487"
    INDEX 01 07:16:32
  TRACK 434 AUDIO
    TITLE "0:"
    INDEX 01 07:18:11
  TRACK 435 AUDIO
    TITLE "6:cjc113_6488"
    INDEX 01 07:18:19
  TRACK 436 AUDIO
    TITLE "0:"
    INDEX 01 07:20:27
  TRACK 437 AUDIO
    TITLE "6:cjc113_6489"
    INDEX 01 07:20:69
  TRACK 438 AUDIO
    TITLE "0:"
    INDEX 01 07:23:16
  TRACK 439 AUDIO
    TITLE "6:cjc113_6490"
    INDEX 01 07:23:24
  TRACK 440 AUDIO
    TITLE "0:"
    INDEX 01 07:26:12
  TRACK 441 AUDIO
    TITLE "6:cjc113_6491"
    INDEX 01 07:26:54
  TRACK 442 AUDIO
    TITLE "0:"
    INDEX 01 07:28:29
  TRACK 443 AUDIO
    TITLE "6:cjc113_6492"
    INDEX 01 07:28:37
  TRACK 444 AUDIO
    TITLE "0:"
    INDEX 01 07:30:49
  TRACK 445 AUDIO
    TITLE "6:cjc113_6493"
    INDEX 01 07:31:17
  TRACK 446 AUDIO
    TITLE "0:"
    INDEX 01 07:32:62
  TRACK 447 AUDIO
    TITLE "6:cjc113_6494"
    INDEX 01 07:32:70
  TRACK 448 AUDIO
    TITLE "0:"
    INDEX 01 07:35:17
  TRACK 449 AUDIO
    TITLE "6:cjc113_6495"
    INDEX 01 07:35:56
  TRACK 450 AUDIO
    TITLE "0:"
    INDEX 01 07:37:36
  TRACK 451 AUDIO
    TITLE "6:cjc113_6496"
    INDEX 01 07:37:42
  TRACK 452 AUDIO
    TITLE "0:"
    INDEX 01 07:39:56
  TRACK 453 AUDIO
    TITLE "6:cjc113_6497"
    INDEX 01 07:40:20
  TRACK 454 AUDIO
    TITLE "0:"
    INDEX 01 07:41:49
  TRACK 455 AUDIO
    TITLE "6:cjc113_6498"
    INDEX 01 07:41:63
  TRACK 456 AUDIO
    TITLE "0:"
    INDEX 01 07:43:74
  TRACK 457 AUDIO
    TITLE "6:cjc113_6499"
    INDEX 01 07:44:42
  TRACK 458 AUDIO
    TITLE "0:"
    INDEX 01 07:45:59
  TRACK 459 AUDIO
    TITLE "6:cjc113_6500"
    INDEX 01 07:45:69
  TRACK 460 AUDIO
    TITLE "0:"
    INDEX 01 07:47:44
  TRACK 461 AUDIO
    TITLE "6:cjc113_6501"
    INDEX 01 07:48:10
  TRACK 462 AUDIO
    TITLE "0:"
    INDEX 01 07:49:23
  TRACK 463 AUDIO
    TITLE "6:cjc113_6502"
    INDEX 01 07:49:29
  TRACK 464 AUDIO
    TITLE "0:"
    INDEX 01 07:51:42
  TRACK 465 AUDIO
    TITLE "6:cjc113_6503"
    INDEX 01 07:52:10
  TRACK 466 AUDIO
    TITLE "0:"
    INDEX 01 07:53:41
  TRACK 467 AUDIO
    TITLE "6:cjc113_6504"
    INDEX 01 07:53:50
  TRACK 468 AUDIO
    TITLE "0:"
    INDEX 01 07:56:35
  TRACK 469 AUDIO
    TITLE "6:cjc113_6505"
    INDEX 01 07:56:74
  TRACK 470 AUDIO
    TITLE "0:"
    INDEX 01 07:58:54
  TRACK 471 AUDIO
    TITLE "6:cjc113_6506"
    INDEX 01 07:58:57
  TRACK 472 AUDIO
    TITLE "0:"
    INDEX 01 08:01:40
  TRACK 473 AUDIO
    TITLE "6:cjc113_6507"
    INDEX 01 08:02:04
  TRACK 474 AUDIO
    TITLE "0:"
    INDEX 01 08:04:11
  TRACK 475 AUDIO
    TITLE "6:cjc113_6508"
    INDEX 01 08:04:19
  TRACK 476 AUDIO
    TITLE "0:"
    INDEX 01 08:07:60
  TRACK 477 AUDIO
    TITLE "6:cjc113_6509"
    INDEX 01 08:08:26
  TRACK 478 AUDIO
    TITLE "0:"
    INDEX 01 08:10:61
  TRACK 479 AUDIO
    TITLE "6:cjc113_6510"
    INDEX 01 08:10:72
  TRACK 480 AUDIO
    TITLE "0:"
    INDEX 01 08:13:39
  TRACK 481 AUDIO
    TITLE "6:cjc113_6511"
    INDEX 01 08:14:06
  TRACK 482 AUDIO
    TITLE "0:"
    INDEX 01 08:16:04
  TRACK 483 AUDIO
    TITLE "6:cjc113_6512"
    INDEX 01 08:16:12
  TRACK 484 AUDIO
    TITLE "0:"
    INDEX 01 08:17:31
  TRACK 485 AUDIO
    TITLE "6:cjc113_6513"
    INDEX 01 08:17:74
  TRACK 486 AUDIO
    TITLE "0:"
    INDEX 01 08:19:34
  TRACK 487 AUDIO
    TITLE "6:cjc113_6514"
    INDEX 01 08:19:40
  TRACK 488 AUDIO
    TITLE "0:"
    INDEX 01 08:21:60
  TRACK 489 AUDIO
    TITLE "6:cjc113_6515"
    INDEX 01 08:22:25
  TRACK 490 AUDIO
    TITLE "0:"
    INDEX 01 08:24:00
  TRACK 491 AUDIO
    TITLE "6:cjc113_6516"
    INDEX 01 08:24:08
  TRACK 492 AUDIO
    TITLE "0:"
    INDEX 01 08:26:32
  TRACK 493 AUDIO
    TITLE "6:cjc113_6517"
    INDEX 01 08:26:71
  TRACK 494 AUDIO
    TITLE "0:"
    INDEX 01 08:28:33
  TRACK 495 AUDIO
    TITLE "6:cjc113_6518"
    INDEX 01 08:28:39
  TRACK 496 AUDIO
    TITLE "0:"
    INDEX 01 08:30:61
  TRACK 497 AUDIO
    TITLE "6:cjc113_6519"
    INDEX 01 08:31:26
  TRACK 498 AUDIO
    TITLE "0:"
    INDEX 01 08:32:62
  TRACK 499 AUDIO
    TITLE "6:cjc113_6520"
    INDEX 01 08:32:70
  TRACK 500 AUDIO
    TITLE "0:"
    INDEX 01 08:34:14
  TRACK 501 AUDIO
    TITLE "6:cjc113_6521"
    INDEX 01 08:34:53
  TRACK 502 AUDIO
    TITLE "0:"
    INDEX 01 08:36:01
  TRACK 503 AUDIO
    TITLE "6:cjc113_6522"
    INDEX 01 08:36:05
  TRACK 504 AUDIO
    TITLE "0:"
    INDEX 01 08:38:22
  TRACK 505 AUDIO
    TITLE "6:cjc113_6523"
    INDEX 01 08:38:67
  TRACK 506 AUDIO
    TITLE "0:"
    INDEX 01 08:40:73
  TRACK 507 AUDIO
    TITLE "6:cjc113_6524"
    INDEX 01 08:41:06
  TRACK 508 AUDIO
    TITLE "0:"
    INDEX 01 08:43:21
  TRACK 509 AUDIO
    TITLE "6:cjc113_6525"
    INDEX 01 08:43:62
  TRACK 510 AUDIO
    TITLE "0:"
    INDEX 01 08:46:06
  TRACK 511 AUDIO
    TITLE "6:cjc113_6526"
    INDEX 01 08:46:13
  TRACK 512 AUDIO
    TITLE "0:"
    INDEX 01 08:49:04
  TRACK 513 AUDIO
    TITLE "6:cjc113_6527"
    INDEX 01 08:49:47
  TRACK 514 AUDIO
    TITLE "0:"
    INDEX 01 08:51:62
  TRACK 515 AUDIO
    TITLE "6:cjc113_6528"
    INDEX 01 08:51:65
  TRACK 516 AUDIO
    TITLE "0:"
    INDEX 01 08:55:04
  TRACK 517 AUDIO
    TITLE "6:cjc113_6529"
    INDEX 01 08:55:48
  TRACK 518 AUDIO
    TITLE "0:"
    INDEX 01 08:57:39
  TRACK 519 AUDIO
    TITLE "6:cjc113_6530"
    INDEX 01 08:57:46
  TRACK 520 AUDIO
    TITLE "0:"
    INDEX 01 08:59:57
